<svg id="icon-phone" fill="currentColor" viewBox="0 0 20 20">
  <path d="M17.91 9.43h-8.5v1.25h8.5l-2.1 2.1.9.91 3.1-3.11a.75.75 0 0 0 .2-.5.74.74 0 0 0-.2-.4l-3.1-3.16-.9.91ZM8.11 19.47v-6.22a.65.65 0 0 0-.19-.42.68.68 0 0 0-.41-.15h-4.4a1.23 1.23 0 0 0 1.2 1.21h2.5v5h-3.7a1.86 1.86 0 0 1-.7-.1 1.89 1.89 0 0 1-.61-.36 1.92 1.92 0 0 1-.42-.56 1.84 1.84 0 0 1-.17-.69v-14a1.81 1.81 0 0 1 .48-1.25 1.79 1.79 0 0 1 1.22-.63h3.9v5h-2.4a1.23 1.23 0 0 0-1.2 1.23h4.4a.68.68 0 0 0 .4-.19.65.65 0 0 0 .19-.42V.6a1 1 0 0 0-.26-.4.84.84 0 0 0-.43-.2h-4.4a3.07 3.07 0 0 0-1.16.19 3.11 3.11 0 0 0-1 .62 3 3 0 0 0-.68 1 2.84 2.84 0 0 0-.26 1.1v14a2.79 2.79 0 0 0 .16 1.18 2.9 2.9 0 0 0 2.74 1.88h4.6a.55.55 0 0 0 .22 0 .42.42 0 0 0 .2-.1.75.75 0 0 0 .14-.19.57.57 0 0 0 .04-.21Z"/>
</svg>
