<svg xmlns="http://www.w3.org/2000/svg" fill="currentColor" viewBox="0 0 25 29">
  <path d="M18.75 9.33a1.09 1.09 0 1 1-1.09-1.09 1.09 1.09 0 0 1 1.09 1.09Zm-12-1.09a1.09 1.09 0 1 0 1.09 1.09 1.09 1.09 0 0 0-1.05-1.09Zm0 13a1.09 1.09 0 1 0 1.09 1.09 1.09 1.09 0 0 0-1.05-1.07Zm5.44 2.17a1.09 1.09 0 1 0 1.09 1.09 1.09 1.09 0 0 0-1.05-1.07Zm-8.7-8.75a1.09 1.09 0 1 0 1.09 1.09 1.09 1.09 0 0 0-1.05-1.07Zm17.4 2.18a1.09 1.09 0 1 0-1.09-1.09 1.09 1.09 0 0 0 1.13 1.11Zm-3.27 4.4a1.09 1.09 0 1 0 1.09 1.09 1.09 1.09 0 0 0-1.05-1.07Zm-5.44-4.34a.8.8 0 0 0 .8-.8V7.94a.78.78 0 0 0-1.56 0v8.23a.76.76 0 0 0 .8.75Zm9.18 11.26a.69.69 0 1 1-1 .95l-1.82-1.87a1 1 0 0 0-1.22-.2A11.89 11.89 0 0 1 6.97 27a1.06 1.06 0 0 0-1.23.2l-1.88 1.93-.06.06a.68.68 0 0 1-.91-1l1.44-1.47a1.1 1.1 0 0 0-.1-1.55A12.76 12.76 0 0 1 0 15.62 12.43 12.43 0 0 1 11.46 3V1.5H5.21a.75.75 0 0 1 0-1.5h14a.75.75 0 0 1 0 1.5h-6.25V3a12.44 12.44 0 0 1 11.5 12.61 12.73 12.73 0 0 1-4.32 9.62 1.08 1.08 0 0 0-.1 1.55Zm1.7-12.57A11 11 0 0 0 12.23 4.41a11 11 0 0 0-10.88 11.2 11.05 11.05 0 0 0 10.88 11.22A11 11 0 0 0 23.1 15.61Z"/>
</svg>
