<svg xmlns="http://www.w3.org/2000/svg" fill="currentColor" viewBox="0 0 28 31">
  <path d="M20.43 18.48a3.31 3.31 0 0 0 0 6.6 3.31 3.31 0 0 0 0-6.6Zm0 5a1.72 1.72 0 1 1 1.6-1.71 1.66 1.66 0 0 1-1.6 1.71ZM11.25.01a3.3 3.3 0 0 0-3.18 3.4 3.3 3.3 0 0 0 3.19 3.4 3.29 3.29 0 0 0 3.18-3.4 3.29 3.29 0 0 0-3.18-3.4Zm0 5.48a2 2 0 0 1-1.93-2.08 2 2 0 0 1 1.94-2.07 2 2 0 0 1 1.93 2.07 2 2 0 0 1-1.93 2.07ZM7.88 17.62a2.51 2.51 0 0 0 0 5 2.51 2.51 0 0 0 0-5Zm-.23 1.89c-.46 0 1.16 1.1 1.16.61s-1.62.39-1.16.39 1.06-.88 1.06-.39-.6-.61-1.06-.61Zm10.5-9.74a7.61 7.61 0 0 1 6.18 1.5c.9.76 1.76 1.33 1.15 2.12-.34.34-.64.66-1.72-.53a6.92 6.92 0 0 0-5.61-1.44 6.2 6.2 0 0 0-3.56 2.15 8.28 8.28 0 0 1-6.5 2.5 8.17 8.17 0 0 1-5.24-2.55 1 1 0 0 1-.12-1.13.85.85 0 0 1 1.2-.13 6.89 6.89 0 0 0 3.82 2.07 6.48 6.48 0 0 0 5.74-2c2.3-2.14 3.46-2.32 4.66-2.56Z"/>
  <path d="M28.3 26.83V8.17c0-.58-.38-.65-.53-.66h-.5c-.5 0-.54.56-.54.74v18.6a2.71 2.71 0 0 1-.82 1.89 2.25 2.25 0 0 1-1.62.6s-20.18 0-20.66 0a2.3 2.3 0 0 1-1.6-1 3 3 0 0 1-.46-1.85V8.31c0-.83-.67-.8-.67-.8H.65c-.54 0-.6.58-.6.77v18.54a4.1 4.1 0 0 0 1.5 3.33 3.64 3.64 0 0 0 2.38.86h20.58a3.86 3.86 0 0 0 2.91-1.56 4.37 4.37 0 0 0 .88-2.63Z"/>
</svg>
