<svg xmlns="http://www.w3.org/2000/svg" fill="currentColor" viewBox="0 0 56.35 60.51">
  <path d="M53.17 12.28H46.1a7.78 7.78 0 0 0 .46-8.18A7.9 7.9 0 0 0 35.89 1c-3.66 2-6.26 6.16-7.72 9.09-1.45-2.98-4.05-7.17-7.72-9.09A7.9 7.9 0 0 0 9.79 4.1a7.77 7.77 0 0 0 .47 8.18H3.18A3.18 3.18 0 0 0 0 15.44v9.47a3.18 3.18 0 0 0 3.18 3.16H4v26.35a6.12 6.12 0 0 0 6.13 6.09H46.2a6.11 6.11 0 0 0 6.12-6.09V28.07h.85a3.18 3.18 0 0 0 3.18-3.16v-9.47a3.18 3.18 0 0 0-3.18-3.16Zm-16.12-9.2a5.44 5.44 0 0 1 7.36 2.17 5.33 5.33 0 0 1-1.76 7H29.81C31 9.73 33.47 5 37.05 3.08ZM11.93 5.25a5.46 5.46 0 0 1 7.36-2.17c3.58 1.92 6.1 6.65 7.24 9.2H13.7a5.36 5.36 0 0 1-1.77-7.03ZM27 28.07v13.8H6.46v-13.8ZM6.46 54.42V44.29H27v13.8H10.15a3.69 3.69 0 0 1-3.69-3.67Zm39.74 3.67H29.39v-13.8h20.49v10.13a3.68 3.68 0 0 1-3.68 3.67Zm3.68-16.22H29.39v-13.8h20.49Zm4-17a.74.74 0 0 1-.74.74h-50a.74.74 0 0 1-.74-.74v-9.43a.75.75 0 0 1 .74-.74h50a.75.75 0 0 1 .74.74Z"/>
</svg>
