<svg xmlns="http://www.w3.org/2000/svg" fill="currentColor" viewBox="0 0 24 30">
  <path d="M10 0a1 1 0 0 0-1 1v5.5a3.12 3.12 0 0 1-.7 1.92 3 3 0 0 1-1.8 1V1a1 1 0 0 0-2 0v8.41a3 3 0 0 1-1.8-1A3.12 3.12 0 0 1 2 6.5V1a1 1 0 0 0-2 0v5.5a5.06 5.06 0 0 0 1.17 3.2 5.39 5.39 0 0 0 3.33 1.75V29a1 1 0 0 0 2 0V11.43A5.1 5.1 0 0 0 9.83 9.7 5.06 5.06 0 0 0 11 6.5V1a1 1 0 0 0-1-1ZM22.27 6.21A15.45 15.45 0 0 0 19.21.29 1 1 0 0 0 17.5 1v28a1 1 0 0 0 2 0v-9H23a1 1 0 0 0 1-1 42.55 42.55 0 0 0-1.73-12.79Z"/>
</svg>
