<svg xmlns="http://www.w3.org/2000/svg">

  <symbol id="logo-text" fill="none" viewBox="0 0 102 19">
    <g fill="#111">
      <path d="M1.43 17.34a6.86 6.86 0 0 1-1.27-4.3V6.65c-.1-1.55.3-3.09 1.19-4.38.87-1 2.2-1.47 4.18-1.47 1.98 0 3.25.47 4.04 1.31a5.42 5.42 0 0 1 1.18 3.77v1.54H6.88V5.65a3.7 3.7 0 0 0-.24-1.54 1.16 1.16 0 0 0-1.1-.62c-.56 0-.95.16-1.11.55a4.85 4.85 0 0 0-.24 1.69v8.23c-.04.55.07 1.11.32 1.61.16.39.55.54 1.1.54.56 0 .87-.15 1.03-.54.18-.52.26-1.06.24-1.61V12.1h3.87v1.54a5.78 5.78 0 0 1-1.18 3.85c-.8.92-2.14 1.38-4.04 1.38-1.9-.07-3.31-.54-4.1-1.54ZM15.41 1.04h4.5l3.33 17.53H19.6l-.63-3.69h-2.6l-.64 3.7h-3.71l3.4-17.54Zm3.24 11.53-.94-6.84-.95 6.84h1.9ZM26 3.96h-2.68V1.04h9.4v2.84h-2.69v14.7H26V3.95ZM39.91 1.04h6.96v1.84h-4.5v5.77H46v1.77h-3.64v6.46h4.5v1.77h-7.03V1.04h.08ZM48.92 1.04h1.74l5.14 11.61V1.04h2.05v17.53h-1.58l-5.21-12v12h-2.14V1.04ZM60.22 1.04h6.96v1.84h-4.5v5.77h3.63v1.77h-3.64v6.46h4.5v1.77h-6.95V1.04ZM69.23 1.04h3.64c1.43-.1 2.85.28 4.03 1.07.87.7 1.26 1.93 1.26 3.54 0 2.23-.7 3.62-2.21 4.08l2.53 8.77h-2.45l-2.37-8.23h-1.98v8.23h-2.53V1.04h.08Zm3.48 7.53c.81.07 1.63-.15 2.3-.61.47-.39.7-1.16.7-2.3a4.85 4.85 0 0 0-.23-1.7c-.18-.4-.49-.72-.87-.92a3.69 3.69 0 0 0-1.74-.31h-1.1V8.5h.94v.07ZM81.32 17.27a7.61 7.61 0 0 1-1.1-4.46V6.96c-.02-1.12.11-2.23.4-3.3.26-.82.78-1.52 1.5-2 .88-.52 1.9-.76 2.92-.7 1.66 0 2.84.38 3.55 1.23a5.77 5.77 0 0 1 1.11 3.85v.61h-2.37v-.54c0-.64-.05-1.28-.16-1.92-.06-.4-.3-.76-.63-1a2.5 2.5 0 0 0-1.5-.39 2.42 2.42 0 0 0-1.58.47 1.75 1.75 0 0 0-.63 1.23c-.1.68-.16 1.38-.16 2.07v6.54c-.06 1 .1 2 .47 2.93.32.61.95.84 1.9.84a1.96 1.96 0 0 0 1.9-.92c.41-.97.6-2.03.55-3.08v-1.23h-2.3V9.88h4.6v8.7h-1.59l-.24-2c-.2.66-.64 1.25-1.22 1.65-.59.4-1.3.6-2.02.57a4.05 4.05 0 0 1-3.4-1.53ZM94.84 12.42l-3.87-11.3h2.37l2.76 8.45 2.69-8.46h2.37L97.3 12.42v6.15h-2.37v-6.15h-.08Z"/>
    </g>
  </symbol>

  <symbol id="program-slim-icon" fill="none" viewBox="0 0 36 50">
    <path fill="#000" d="M28.2 0H28c-.32.19-.59.47-.74.82a8.03 8.03 0 0 0-.67 1.76.84.84 0 0 1-.76.69 3.77 3.77 0 0 0-2.69 1.95c-.37.66-.69 1.35-.95 2.06-.73 1.9-1.29 3.85-1.98 5.77-.32.87-.34.87-1.32.87-1.16 0-1.08-.18-1.1 1.1 0 .41.13.62.56.6.13 0 .33-.07.39.1.05.18-.13.26-.23.36a4.63 4.63 0 0 1-2.23 1.26c-.97.26-1.97.47-2.92.79-2.45.82-4.7 1.96-6.46 3.9a14.44 14.44 0 0 0-2.44 4.04c-1.89 4.46-2.8 9.15-3.51 13.88a97.06 97.06 0 0 0-.75 6.7C.1 47.75 0 48.88 0 50h17.14c.03-.23-.01-.46-.12-.66a2.58 2.58 0 0 0-1.97-1.58c-.36-.08-.4-.2-.18-.48.36-.48.64-1.02.82-1.6.84-2.47 1.16-5.06 1.57-7.62.23-1.96.83-3.85 1.77-5.59a11.13 11.13 0 0 1 2.87-3.28c.43-.32.45-.32.52.23.05.36.06.74.09 1.11.15 2.44.12 4.88-.1 7.31-.2 1.88-.22 3.78-.07 5.67.2 2.2.59 4.36 1.16 6.49h6.84a2.8 2.8 0 0 0-2.18-2.29c-.64-.1-1.3-.07-1.93.1-.31.08-.44 0-.46-.33-.22-2.73-.04-5.47.51-8.16a91.8 91.8 0 0 0 1.57-9.37c.14-1.27.54-2.5 1.18-3.6.6-1.1 1.14-2.23 1.74-3.33a3.03 3.03 0 0 0 .22-2.67c-.14-.37-.27-.74-.44-1.1-.52-1-1.03-2-1.5-3-.26-.52-.2-.59.36-.6.84 0 .84 0 .86-.85v-.34c0-.35-.14-.55-.52-.51h-.78c-.36 0-.46-.15-.37-.52a3.22 3.22 0 0 1 2.64-2.28 11.3 11.3 0 0 1 3.4.22.51.51 0 0 0 .65-.33 40 40 0 0 1 .66-1.55.52.52 0 0 0-.05-.58c-1.65-2.1-3.43-4.05-5.87-5.3a.77.77 0 0 1-.45-.58c-.14-.74-.35-1.46-.65-2.14A1.8 1.8 0 0 0 28.2 0Z"/>
  </symbol>

  <symbol id="program-pro-icon" fill="none" viewBox="0 0 68 28">
    <path fill="#000" d="M61.55 2.9A7.6 7.6 0 0 1 63.8.6c.5-.35.8-.35 1.1.3.4.95.75 1.95.45 3a1.15 1.15 0 0 0 .2 1.05c.3.4.55.8.8 1.15a3.14 3.14 0 0 1 .45 3.1c-.18.5-.22 1.03-.1 1.55.1.5.1 1 0 1.5a1.88 1.88 0 0 1-1.35 1.6 2.6 2.6 0 0 0-1.6 1 .53.53 0 0 1-.45.25c-.6.1-2.1-1.25-2.1-1.85v-.3c.05-1.8-.05-1.95-1.7-2.7a2.2 2.2 0 0 1-.9-.6c-.3-.4-.7-.35-1.15-.2-.45.15-.7.45-.65.95.15 1.21.2 2.43.15 3.65 0 .14.04.28.1.4 1.55 2.25 2.15 4.9 2.9 7.45.6 1.95 1.7 3 3.7 3.15.32.03.64.08.95.15a2.08 2.08 0 0 1 1.7 1.6c.35 1.05.15 1.3-.9 1.3h-3.25c-.42.02-.83-.12-1.15-.4a5.86 5.86 0 0 0-1.7-1 3.63 3.63 0 0 1-1.7-1.3 14.3 14.3 0 0 0-2-2.25c-1.4-1.45-2.9-2.85-4.2-4.35a5.69 5.69 0 0 1-1.6-3.8c0-.45-.1-.65-.6-.45a.96.96 0 0 1-.5.15c-1.4 0-2.1.85-2.6 2.1-.45 1.05-1.05 2.05-1.6 3.1A5.2 5.2 0 0 0 44 22c0 1.2.3 1.6 1.4 2 .7.25 1.35.5 1.7 1.2.4.8.3 1-.55 1.05h-3.4a.94.94 0 0 1-.95-.55l-.9-1.5a3.02 3.02 0 0 1-.35-2.7c.22-.87.23-1.77.05-2.65a4.2 4.2 0 0 1 .85-3.5c.3-.35.3-.5-.2-.6a25.03 25.03 0 0 1-5.95-2.1c-1.6-.6-1.9-.5-2.35 1.15-.4 1.4-.8 2.8-1.1 4.25-.35 1.6.05 3.1.55 4.6.2.6.8.55 1.25.7 1 .3 1.85.7 2.25 1.75.35.8.3.9-.55.9-.85 0-1.7-.05-2.6 0-.76.01-1.5-.23-2.1-.7-2.4-1.6-3.1-4.05-3.3-6.7-.1-1.65-1-2.95-2.05-4.2-.2-.25-.4-.35-.7-.15-1.07.6-2.2 1.1-3.35 1.5a13.35 13.35 0 0 0-6.1 4.4 5.31 5.31 0 0 0-1.1 2.55c-.15.9.1 1.3 1 1.55s1.35.75 1.45 1.7c.05.4-.1.6-.5.6h-4.05a.83.83 0 0 1-.65-.4 4.28 4.28 0 0 1-.95-2.75 25.3 25.3 0 0 1 .45-5.15 3.15 3.15 0 0 1 1.7-2.4c2.95-1.4 4.5-4.05 5.9-6.8.3-.55.05-.65-.45-.6-1.4.2-2.73.75-3.85 1.6a35.3 35.3 0 0 0-4.15 3.55 8.34 8.34 0 0 1-5.15 2.45c-3.65.2-5.35-1.85-5.2-5.15.03-1.13.46-2.2 1.2-3.05a2.12 2.12 0 0 1 2.25-.75c.75.2.95.6.65 1.35-.15.3-.35.55-.5.85-.22.3-.38.64-.5 1-.55 1.5.2 2.55 1.75 2.7 1.65.15 3-.55 4.25-1.55 1.5-1.2 2.85-2.6 4-4.15a10.4 10.4 0 0 1 7.2-4.05c1.15-.15 2.15-.65 3.25-.95 2.06-.63 4.2-.93 6.35-.9a6.5 6.5 0 0 0 2.9-.55c2.45-1 5-1 7.55-.5 2 .4 4 .9 5.95 1.4 1.16.22 2.35.18 3.5-.1 2.2-.56 4.44-.9 6.7-1a9.08 9.08 0 0 1 4.3.85c1 .45 1 .45.75 1.4Z"/>
  </symbol>

</svg>
