<svg xmlns="http://www.w3.org/2000/svg">

  <symbol id="logo-text" fill="currentColor" viewBox="0 0 102 19">
    <path d="M1.43 17.34a6.86 6.86 0 0 1-1.27-4.3V6.65c-.1-1.55.3-3.09 1.19-4.38.87-1 2.2-1.47 4.18-1.47 1.98 0 3.25.47 4.04 1.31a5.42 5.42 0 0 1 1.18 3.77v1.54H6.88V5.65a3.7 3.7 0 0 0-.24-1.54 1.16 1.16 0 0 0-1.1-.62c-.56 0-.95.16-1.11.55a4.85 4.85 0 0 0-.24 1.69v8.23c-.04.55.07 1.11.32 1.61.16.39.55.54 1.1.54.56 0 .87-.15 1.03-.54.18-.52.26-1.06.24-1.61V12.1h3.87v1.54a5.78 5.78 0 0 1-1.18 3.85c-.8.92-2.14 1.38-4.04 1.38-1.9-.07-3.31-.54-4.1-1.54ZM15.41 1.04h4.5l3.33 17.53H19.6l-.63-3.69h-2.6l-.64 3.7h-3.71l3.4-17.54Zm3.24 11.53-.94-6.84-.95 6.84h1.9ZM26 3.96h-2.68V1.04h9.4v2.84h-2.69v14.7H26V3.95ZM39.91 1.04h6.96v1.84h-4.5v5.77H46v1.77h-3.64v6.46h4.5v1.77h-7.03V1.04h.08ZM48.92 1.04h1.74l5.14 11.61V1.04h2.05v17.53h-1.58l-5.21-12v12h-2.14V1.04ZM60.22 1.04h6.96v1.84h-4.5v5.77h3.63v1.77h-3.64v6.46h4.5v1.77h-6.95V1.04ZM69.23 1.04h3.64c1.43-.1 2.85.28 4.03 1.07.87.7 1.26 1.93 1.26 3.54 0 2.23-.7 3.62-2.21 4.08l2.53 8.77h-2.45l-2.37-8.23h-1.98v8.23h-2.53V1.04h.08Zm3.48 7.53c.81.07 1.63-.15 2.3-.61.47-.39.7-1.16.7-2.3a4.85 4.85 0 0 0-.23-1.7c-.18-.4-.49-.72-.87-.92a3.69 3.69 0 0 0-1.74-.31h-1.1V8.5h.94v.07ZM81.32 17.27a7.61 7.61 0 0 1-1.1-4.46V6.96c-.02-1.12.11-2.23.4-3.3.26-.82.78-1.52 1.5-2 .88-.52 1.9-.76 2.92-.7 1.66 0 2.84.38 3.55 1.23a5.77 5.77 0 0 1 1.11 3.85v.61h-2.37v-.54c0-.64-.05-1.28-.16-1.92-.06-.4-.3-.76-.63-1a2.5 2.5 0 0 0-1.5-.39 2.42 2.42 0 0 0-1.58.47 1.75 1.75 0 0 0-.63 1.23c-.1.68-.16 1.38-.16 2.07v6.54c-.06 1 .1 2 .47 2.93.32.61.95.84 1.9.84a1.96 1.96 0 0 0 1.9-.92c.41-.97.6-2.03.55-3.08v-1.23h-2.3V9.88h4.6v8.7h-1.59l-.24-2c-.2.66-.64 1.25-1.22 1.65-.59.4-1.3.6-2.02.57a4.05 4.05 0 0 1-3.4-1.53ZM94.84 12.42l-3.87-11.3h2.37l2.76 8.45 2.69-8.46h2.37L97.3 12.42v6.15h-2.37v-6.15h-.08Z"/>
  </symbol>

  <symbol id="program-slim-icon" fill="currentColor" viewBox="0 0 36 50">
    <path d="M28.2 0H28c-.32.19-.59.47-.74.82a8.03 8.03 0 0 0-.67 1.76.84.84 0 0 1-.76.69 3.77 3.77 0 0 0-2.69 1.95c-.37.66-.69 1.35-.95 2.06-.73 1.9-1.29 3.85-1.98 5.77-.32.87-.34.87-1.32.87-1.16 0-1.08-.18-1.1 1.1 0 .41.13.62.56.6.13 0 .33-.07.39.1.05.18-.13.26-.23.36a4.63 4.63 0 0 1-2.23 1.26c-.97.26-1.97.47-2.92.79-2.45.82-4.7 1.96-6.46 3.9a14.44 14.44 0 0 0-2.44 4.04c-1.89 4.46-2.8 9.15-3.51 13.88a97.06 97.06 0 0 0-.75 6.7C.1 47.75 0 48.88 0 50h17.14c.03-.23-.01-.46-.12-.66a2.58 2.58 0 0 0-1.97-1.58c-.36-.08-.4-.2-.18-.48.36-.48.64-1.02.82-1.6.84-2.47 1.16-5.06 1.57-7.62.23-1.96.83-3.85 1.77-5.59a11.13 11.13 0 0 1 2.87-3.28c.43-.32.45-.32.52.23.05.36.06.74.09 1.11.15 2.44.12 4.88-.1 7.31-.2 1.88-.22 3.78-.07 5.67.2 2.2.59 4.36 1.16 6.49h6.84a2.8 2.8 0 0 0-2.18-2.29c-.64-.1-1.3-.07-1.93.1-.31.08-.44 0-.46-.33-.22-2.73-.04-5.47.51-8.16a91.8 91.8 0 0 0 1.57-9.37c.14-1.27.54-2.5 1.18-3.6.6-1.1 1.14-2.23 1.74-3.33a3.03 3.03 0 0 0 .22-2.67c-.14-.37-.27-.74-.44-1.1-.52-1-1.03-2-1.5-3-.26-.52-.2-.59.36-.6.84 0 .84 0 .86-.85v-.34c0-.35-.14-.55-.52-.51h-.78c-.36 0-.46-.15-.37-.52a3.22 3.22 0 0 1 2.64-2.28 11.3 11.3 0 0 1 3.4.22.51.51 0 0 0 .65-.33 40 40 0 0 1 .66-1.55.52.52 0 0 0-.05-.58c-1.65-2.1-3.43-4.05-5.87-5.3a.77.77 0 0 1-.45-.58c-.14-.74-.35-1.46-.65-2.14A1.8 1.8 0 0 0 28.2 0Z"/>
  </symbol>

  <symbol id="program-pro-icon" fill="currentColor" viewBox="0 0 68 28">
    <path d="M61.55 2.9A7.6 7.6 0 0 1 63.8.6c.5-.35.8-.35 1.1.3.4.95.75 1.95.45 3a1.15 1.15 0 0 0 .2 1.05c.3.4.55.8.8 1.15a3.14 3.14 0 0 1 .45 3.1c-.18.5-.22 1.03-.1 1.55.1.5.1 1 0 1.5a1.88 1.88 0 0 1-1.35 1.6 2.6 2.6 0 0 0-1.6 1 .53.53 0 0 1-.45.25c-.6.1-2.1-1.25-2.1-1.85v-.3c.05-1.8-.05-1.95-1.7-2.7a2.2 2.2 0 0 1-.9-.6c-.3-.4-.7-.35-1.15-.2-.45.15-.7.45-.65.95.15 1.21.2 2.43.15 3.65 0 .14.04.28.1.4 1.55 2.25 2.15 4.9 2.9 7.45.6 1.95 1.7 3 3.7 3.15.32.03.64.08.95.15a2.08 2.08 0 0 1 1.7 1.6c.35 1.05.15 1.3-.9 1.3h-3.25c-.42.02-.83-.12-1.15-.4a5.86 5.86 0 0 0-1.7-1 3.63 3.63 0 0 1-1.7-1.3 14.3 14.3 0 0 0-2-2.25c-1.4-1.45-2.9-2.85-4.2-4.35a5.69 5.69 0 0 1-1.6-3.8c0-.45-.1-.65-.6-.45a.96.96 0 0 1-.5.15c-1.4 0-2.1.85-2.6 2.1-.45 1.05-1.05 2.05-1.6 3.1A5.2 5.2 0 0 0 44 22c0 1.2.3 1.6 1.4 2 .7.25 1.35.5 1.7 1.2.4.8.3 1-.55 1.05h-3.4a.94.94 0 0 1-.95-.55l-.9-1.5a3.02 3.02 0 0 1-.35-2.7c.22-.87.23-1.77.05-2.65a4.2 4.2 0 0 1 .85-3.5c.3-.35.3-.5-.2-.6a25.03 25.03 0 0 1-5.95-2.1c-1.6-.6-1.9-.5-2.35 1.15-.4 1.4-.8 2.8-1.1 4.25-.35 1.6.05 3.1.55 4.6.2.6.8.55 1.25.7 1 .3 1.85.7 2.25 1.75.35.8.3.9-.55.9-.85 0-1.7-.05-2.6 0-.76.01-1.5-.23-2.1-.7-2.4-1.6-3.1-4.05-3.3-6.7-.1-1.65-1-2.95-2.05-4.2-.2-.25-.4-.35-.7-.15-1.07.6-2.2 1.1-3.35 1.5a13.35 13.35 0 0 0-6.1 4.4 5.31 5.31 0 0 0-1.1 2.55c-.15.9.1 1.3 1 1.55s1.35.75 1.45 1.7c.05.4-.1.6-.5.6h-4.05a.83.83 0 0 1-.65-.4 4.28 4.28 0 0 1-.95-2.75 25.3 25.3 0 0 1 .45-5.15 3.15 3.15 0 0 1 1.7-2.4c2.95-1.4 4.5-4.05 5.9-6.8.3-.55.05-.65-.45-.6-1.4.2-2.73.75-3.85 1.6a35.3 35.3 0 0 0-4.15 3.55 8.34 8.34 0 0 1-5.15 2.45c-3.65.2-5.35-1.85-5.2-5.15.03-1.13.46-2.2 1.2-3.05a2.12 2.12 0 0 1 2.25-.75c.75.2.95.6.65 1.35-.15.3-.35.55-.5.85-.22.3-.38.64-.5 1-.55 1.5.2 2.55 1.75 2.7 1.65.15 3-.55 4.25-1.55 1.5-1.2 2.85-2.6 4-4.15a10.4 10.4 0 0 1 7.2-4.05c1.15-.15 2.15-.65 3.25-.95 2.06-.63 4.2-.93 6.35-.9a6.5 6.5 0 0 0 2.9-.55c2.45-1 5-1 7.55-.5 2 .4 4 .9 5.95 1.4 1.16.22 2.35.18 3.5-.1 2.2-.56 4.44-.9 6.7-1a9.08 9.08 0 0 1 4.3.85c1 .45 1 .45.75 1.4Z"/>
  </symbol>

  <symbol id="icon-leaf" fill="currentColor" viewBox="0 0 30 32">
    <path d="M27.84 2.77a.95.95 0 0 0-.9-.77h-.01c-4.94.03-16.95.92-21.8 8.38-2.51 3.88-2.73 8.91-.64 14.96l.07.13a25.93 25.93 0 0 0-1.04 3.32c-.11.54.21 1.07.72 1.19l.2.02c.43 0 .81-.32.9-.79.03-.1 2.42-10.37 10.86-16.38.43-.3.55-.93.26-1.38a.9.9 0 0 0-1.3-.28c-4.79 3.4-7.74 8-9.47 11.65-1.24-4.57-.92-8.37.99-11.3 3.74-5.76 12.62-7.15 17.98-7.45-1.16 1.8-2.41 5.1-2.41 10.93 0 3.12-.83 5.52-2.47 7.14-2.62 2.6-6.88 2.83-10 2.58-.51-.04-.96.38-1 .93-.04.55.35 1.03.86 1.07.63.05 1.3.08 1.98.08 3.18 0 6.87-.66 9.43-3.2 2.04-2 3.07-4.9 3.07-8.6 0-9.1 3.22-11.1 3.23-11.1.4-.21.6-.68.5-1.13Z"/>
  </symbol>

  <symbol id="icon-powder" fill="currentColor" viewBox="0 0 28 31">
    <path d="M20.43 18.48a3.31 3.31 0 0 0 0 6.6 3.31 3.31 0 0 0 0-6.6Zm0 5a1.72 1.72 0 1 1 1.6-1.71 1.66 1.66 0 0 1-1.6 1.71ZM11.25.01a3.3 3.3 0 0 0-3.18 3.4 3.3 3.3 0 0 0 3.19 3.4 3.29 3.29 0 0 0 3.18-3.4 3.29 3.29 0 0 0-3.18-3.4Zm0 5.48a2 2 0 0 1-1.93-2.08 2 2 0 0 1 1.94-2.07 2 2 0 0 1 1.93 2.07 2 2 0 0 1-1.93 2.07ZM7.88 17.62a2.51 2.51 0 0 0 0 5 2.51 2.51 0 0 0 0-5Zm-.23 1.89c-.46 0 1.16 1.1 1.16.61s-1.62.39-1.16.39 1.06-.88 1.06-.39-.6-.61-1.06-.61Zm10.5-9.74a7.61 7.61 0 0 1 6.18 1.5c.9.76 1.76 1.33 1.15 2.12-.34.34-.64.66-1.72-.53a6.92 6.92 0 0 0-5.61-1.44 6.2 6.2 0 0 0-3.56 2.15 8.28 8.28 0 0 1-6.5 2.5 8.17 8.17 0 0 1-5.24-2.55 1 1 0 0 1-.12-1.13.85.85 0 0 1 1.2-.13 6.89 6.89 0 0 0 3.82 2.07 6.48 6.48 0 0 0 5.74-2c2.3-2.14 3.46-2.32 4.66-2.56Z"/>
    <path d="M28.3 26.83V8.17c0-.58-.38-.65-.53-.66h-.5c-.5 0-.54.56-.54.74v18.6a2.71 2.71 0 0 1-.82 1.89 2.25 2.25 0 0 1-1.62.6s-20.18 0-20.66 0a2.3 2.3 0 0 1-1.6-1 3 3 0 0 1-.46-1.85V8.31c0-.83-.67-.8-.67-.8H.65c-.54 0-.6.58-.6.77v18.54a4.1 4.1 0 0 0 1.5 3.33 3.64 3.64 0 0 0 2.38.86h20.58a3.86 3.86 0 0 0 2.91-1.56 4.37 4.37 0 0 0 .88-2.63Z"/>
  </symbol>

  <symbol id="icon-food" fill="currentColor" viewBox="0 0 24 30">
    <path d="M10 0a1 1 0 0 0-1 1v5.5a3.12 3.12 0 0 1-.7 1.92 3 3 0 0 1-1.8 1V1a1 1 0 0 0-2 0v8.41a3 3 0 0 1-1.8-1A3.12 3.12 0 0 1 2 6.5V1a1 1 0 0 0-2 0v5.5a5.06 5.06 0 0 0 1.17 3.2 5.39 5.39 0 0 0 3.33 1.75V29a1 1 0 0 0 2 0V11.43A5.1 5.1 0 0 0 9.83 9.7 5.06 5.06 0 0 0 11 6.5V1a1 1 0 0 0-1-1ZM22.27 6.21A15.45 15.45 0 0 0 19.21.29 1 1 0 0 0 17.5 1v28a1 1 0 0 0 2 0v-9H23a1 1 0 0 0 1-1 42.55 42.55 0 0 0-1.73-12.79Z"/>
  </symbol>

  <symbol id="icon-time" fill="currentColor" viewBox="0 0 25 29">
    <path d="M18.75 9.33a1.09 1.09 0 1 1-1.09-1.09 1.09 1.09 0 0 1 1.09 1.09Zm-12-1.09a1.09 1.09 0 1 0 1.09 1.09 1.09 1.09 0 0 0-1.05-1.09Zm0 13a1.09 1.09 0 1 0 1.09 1.09 1.09 1.09 0 0 0-1.05-1.07Zm5.44 2.17a1.09 1.09 0 1 0 1.09 1.09 1.09 1.09 0 0 0-1.05-1.07Zm-8.7-8.75a1.09 1.09 0 1 0 1.09 1.09 1.09 1.09 0 0 0-1.05-1.07Zm17.4 2.18a1.09 1.09 0 1 0-1.09-1.09 1.09 1.09 0 0 0 1.13 1.11Zm-3.27 4.4a1.09 1.09 0 1 0 1.09 1.09 1.09 1.09 0 0 0-1.05-1.07Zm-5.44-4.34a.8.8 0 0 0 .8-.8V7.94a.78.78 0 0 0-1.56 0v8.23a.76.76 0 0 0 .8.75Zm9.18 11.26a.69.69 0 1 1-1 .95l-1.82-1.87a1 1 0 0 0-1.22-.2A11.89 11.89 0 0 1 6.97 27a1.06 1.06 0 0 0-1.23.2l-1.88 1.93-.06.06a.68.68 0 0 1-.91-1l1.44-1.47a1.1 1.1 0 0 0-.1-1.55A12.76 12.76 0 0 1 0 15.62 12.43 12.43 0 0 1 11.46 3V1.5H5.21a.75.75 0 0 1 0-1.5h14a.75.75 0 0 1 0 1.5h-6.25V3a12.44 12.44 0 0 1 11.5 12.61 12.73 12.73 0 0 1-4.32 9.62 1.08 1.08 0 0 0-.1 1.55Zm1.7-12.57A11 11 0 0 0 12.23 4.41a11 11 0 0 0-10.88 11.2 11.05 11.05 0 0 0 10.88 11.22A11 11 0 0 0 23.1 15.61Z"/>
  </symbol>

  <symbol id="icon-vkontakte" fill="currentColor" viewBox="0 0 23 13">
    <path d="M.07 2c0-.63.42-.96 1.27-1.01L4.6 1c.22 0 .37.09.44.27.33.91.7 1.7 1.13 2.37.41.66.95 1.43 1.63 2.3a.3.3 0 0 0 .28.16c.1 0 .18-.04.24-.13l.07-.2.02-3.17c0-.21-.06-.36-.19-.43A1.9 1.9 0 0 0 7.53 2c-.26-.04-.4-.17-.4-.4 0-.05.02-.09.03-.11C7.46.7 8.34.3 9.8.3L11 .29c.56 0 1.02.12 1.38.35.37.23.55.6.55 1.1v4.15c.1.06.2.09.28.09.22 0 .41-.11.57-.33 1.6-1.88 2.48-3.13 2.6-3.77a1.29 1.29 0 0 1 .55-.57c.24-.13.44-.22.62-.27a.5.5 0 0 1 .2-.03h3.39l.21.01c.3 0 .52.12.68.35.06.07.1.15.12.24a1.57 1.57 0 0 1 .06.4v.13c-.1.5-.36 1.03-.78 1.6-.41.57-.94 1.18-1.59 1.84-.64.66-1.04 1.09-1.2 1.3-.13.14-.2.28-.2.4 0 .1.06.2.18.33l3.2 3.36c.17.2.26.41.26.64 0 .28-.13.52-.4.7-.26.18-.57.28-.94.3l-.37.03h-3.33a.8.8 0 0 0-.08 0 .8.8 0 0 1-.1.02c-.31 0-.61-.12-.89-.35a182 182 0 0 1-2.06-2.16 1.1 1.1 0 0 0-.3-.24 25.65 25.65 0 0 0-.44 1.63l-.07.31c-.14.43-.45.68-.92.77l-.3.02H9.74a5.92 5.92 0 0 1-3.62-1.4 14.5 14.5 0 0 1-3.25-3.59A32.9 32.9 0 0 1 .18 2.52C.11 2.36.07 2.2.07 2Zm13.15 4.73c-.3 0-.58-.07-.83-.21-.25-.14-.37-.33-.37-.58v-4.2c0-.25-.07-.42-.22-.52-.15-.1-.4-.16-.77-.16L9.8 1.1c-.63 0-1.1.09-1.43.27.65.26.97.67.97 1.24v3.22c-.03.3-.18.56-.44.76-.26.2-.55.3-.88.3-.43 0-.77-.17-1-.53a18.47 18.47 0 0 1-2.54-4.1l-.2-.47-2.9-.02c-.2 0-.3.01-.33.03-.02.02-.03.07-.03.16 0 .1.02.22.04.34l.46 1.03a23.46 23.46 0 0 0 4 6.25c1.44 1.53 2.85 2.29 4.23 2.29h2.2c.08 0 .15-.02.19-.07a.52.52 0 0 0 .1-.24l.05-.18.42-1.61c.11-.22.22-.37.3-.44.16-.14.35-.2.57-.2.35 0 .71.17 1.08.53l1.86 1.97c.11.16.24.24.37.24h3.6c.45 0 .67-.1.67-.28a.31.31 0 0 0-.07-.18l-3.17-3.3a1.17 1.17 0 0 1-.38-.83c0-.3.12-.57.35-.84.2-.25.56-.65 1.11-1.22a28.2 28.2 0 0 0 1.43-1.59c.41-.5.68-.94.81-1.34l.07-.24a.24.24 0 0 1-.02-.12l-.02-.14h-3.44c-.22.07-.4.18-.53.33l-.13.35c-.36.84-1.32 2.14-2.86 3.9-.31.24-.67.36-1.08.36Z"/>
  </symbol>

  <symbol id="icon-facebook" stroke="currentColor" fill="none" viewBox="0 0 13 20">
    <path stroke-linecap="round" stroke-linejoin="round" stroke-width="1" d="M11.5.83H8.75c-1.22 0-2.38.48-3.24 1.32a4.45 4.45 0 0 0-1.34 3.18v2.7H1.42v3.59h2.75v7.19h3.66v-7.2h2.75l.92-3.59H7.83v-2.7c0-.23.1-.46.27-.63.17-.17.4-.26.65-.26h2.75V.83Z"/>
  </symbol>

  <symbol id="icon-instagram" fill="currentColor" viewBox="0 0 16 16">
    <path d="M7.98.06c1.34 0 2.43.02 3.27.05a6 6 0 0 1 1.92.37 3.99 3.99 0 0 1 2.31 2.32 6 6 0 0 1 .38 1.92 91.88 91.88 0 0 1 0 6.53 6 6 0 0 1-.38 1.92 3.99 3.99 0 0 1-2.3 2.31 6 6 0 0 1-1.93.38 91.88 91.88 0 0 1-6.53 0 6 6 0 0 1-1.92-.38 3.99 3.99 0 0 1-2.32-2.3 6 6 0 0 1-.37-1.93 91.73 91.73 0 0 1 0-6.53A6 6 0 0 1 .48 2.8 3.99 3.99 0 0 1 2.8.48 6 6 0 0 1 4.72.11C5.56.08 6.65.06 7.98.06Zm0 1.03c-1.38 0-2.51.02-3.39.05-.56.02-1.08.12-1.56.3-.75.31-1.28.84-1.6 1.6-.17.47-.27 1-.29 1.55a98.83 98.83 0 0 0 0 6.79c.02.56.12 1.08.3 1.56.31.75.84 1.28 1.6 1.6.47.17 1 .27 1.55.29a98.66 98.66 0 0 0 6.79 0 5.01 5.01 0 0 0 1.56-.3 2.85 2.85 0 0 0 1.6-1.6c.17-.47.27-1 .29-1.55a98.66 98.66 0 0 0 0-6.79 5.01 5.01 0 0 0-.3-1.56 2.85 2.85 0 0 0-1.6-1.6c-.47-.17-1-.27-1.55-.29-.88-.03-2.01-.05-3.4-.05Zm0 10.07c.88 0 1.63-.31 2.25-.93.62-.62.93-1.37.93-2.25 0-.87-.31-1.62-.93-2.24a3.06 3.06 0 0 0-2.25-.93c-.87 0-1.62.31-2.24.93a3.06 3.06 0 0 0-.93 2.24c0 .88.31 1.63.93 2.25.62.62 1.37.93 2.24.93Zm0-7.24c1.13 0 2.09.4 2.88 1.19.8.8 1.19 1.75 1.19 2.87 0 1.13-.4 2.09-1.2 2.88-.78.8-1.74 1.19-2.87 1.19-1.12 0-2.08-.4-2.87-1.2a3.92 3.92 0 0 1-1.19-2.87c0-1.12.4-2.08 1.19-2.87.8-.8 1.75-1.19 2.87-1.19Zm5.2-.15a.95.95 0 0 1-.97.94.9.9 0 0 1-.67-.28.9.9 0 0 1-.27-.66.95.95 0 0 1 .93-.97c.26 0 .49.1.68.29.2.19.3.42.3.68Z"/>
  </symbol>

  <symbol id="icon-htmlacademy" fill="currentColor" viewBox="0 0 27 34">
    <path d="M13.64.02 13.5 0 0 1.4v24.61L13.5 34 27 26.01V1.41L13.64 0Zm11.6 25L13.5 31.96 1.77 25.02v-10.1l11.68 6.93.02 1.25-8.02-4.75v1.23l8.04 4.8.02 1.3-8.05-4.76v1.22l8.04 4.81 8.12-4.83V16.9l3.62-2.15v10.26Zm0-11.57L22 15.33l-1.48.88-7.06-4.19-.01 1.23 6.04 3.57-.06.03-.13.07-.86.5-4.98-2.95-.01 1.22 3.93 2.33-.93.61-.02.01-2.97-1.74-.01 1.23 1.94 1.13-1.98 1.19L1.8 13.58l11.63-6.96 11.8 6.83Zm0-1.22L13.43 5.3 1.77 12.22V2.99L13.5 1.76 25.23 3v9.24Z"/>
  </symbol>
</svg>
